# xmcd
#
# Track frame offsets:
#	150
#	16703
#	31282
#	46671
#	59573
#	71984
#	85184
#	95525
#	108241
#	120847
#	134132
#	147176
#	159917
#	171568
#	185279
#	198342
#	211312
#	224127
#	237513
#	252973
#	264568
#	276473
#	285350
#	296382
#
# Disc length: 4147 seconds
#
# Revision: 0
# Processed by: cddbd v1.5.2PL0 Copyright (c) Steve Scherf et al.
# Submitted via: EasyCDDAExtractor 11.5.3.1
#
DISCID=6d103118
DTITLE=Erkki Junkkarinen - Ruusuja Hopeamaljassa, Laulajan Muisto
DYEAR=1900
DGENRE=
TTITLE0=Kostervalssi
TTITLE1=Keinussa Kesällä Kerran
TTITLE2=Kuusamoon
TTITLE3=Ruhtinaan Viulu
TTITLE4=Rakkautta Kööpenhaminassa
TTITLE5=Unikuva
TTITLE6=Alaska
TTITLE7=Kuin Lapsena Ennen
TTITLE8=Valssi Menneiltä Ajoilta
TTITLE9=Ei Yhtään Ystävää
TTITLE10=Onnen Lähde
TTITLE11=Kun Yö On Valoton
TTITLE12=Jää Hyvästi Armas
TTITLE13=Tango Nocturno
TTITLE14=Vain Kuljet Mustalainen
TTITLE15=Orjan Ruusu
TTITLE16=Domino
TTITLE17=Kohtauspaikka
TTITLE18=Uralin Pihlaja
TTITLE19=Pieni Sydän
TTITLE20=Ei Meillä Itketä
TTITLE21=Petsamo
TTITLE22=Kerran Saavun Satamaan
TTITLE23=Yölintu
EXTD=
EXTT0=
EXTT1=
EXTT2=
EXTT3=
EXTT4=
EXTT5=
EXTT6=
EXTT7=
EXTT8=
EXTT9=
EXTT10=
EXTT11=
EXTT12=
EXTT13=
EXTT14=
EXTT15=
EXTT16=
EXTT17=
EXTT18=
EXTT19=
EXTT20=
EXTT21=
EXTT22=
EXTT23=
PLAYORDER=
